<svg xmlns="http://www.w3.org/2000/svg" xmlns:xlink="http://www.w3.org/1999/xlink" version="1.1" id="Calque_1" x="0px" y="0px" viewBox="0 0 1000 1000" enable-background="new 0 0 1000 1000" xml:space="preserve" height="100px" width="100px">
<metadata><?xpacket begin="&#65279;" id="W5M0MpCehiHzreSzNTczkc9d"?>
<x:xmpmeta xmlns:x="adobe:ns:meta/" x:xmptk="Adobe XMP Core 5.5-c014 79.151739, 2013/04/03-12:12:15        ">
   <rdf:RDF xmlns:rdf="http://www.w3.org/1999/02/22-rdf-syntax-ns#">
      <rdf:Description xmlns:xmp="http://ns.adobe.com/xap/1.0/" xmlns:xmpGImg="http://ns.adobe.com/xap/1.0/g/img/" xmlns:xmpTPg="http://ns.adobe.com/xap/1.0/t/pg/" xmlns:stDim="http://ns.adobe.com/xap/1.0/sType/Dimensions#" xmlns:xmpG="http://ns.adobe.com/xap/1.0/g/" xmlns:dc="http://purl.org/dc/elements/1.1/" xmlns:xmpMM="http://ns.adobe.com/xap/1.0/mm/" xmlns:stEvt="http://ns.adobe.com/xap/1.0/sType/ResourceEvent#" xmlns:stRef="http://ns.adobe.com/xap/1.0/sType/ResourceRef#" rdf:about="">
         <xmp:CreatorTool>Adobe Illustrator CC (Macintosh)</xmp:CreatorTool>
         <xmp:CreateDate>2014-06-25T18:21:33+02:00</xmp:CreateDate>
         <xmp:MetadataDate>2014-06-25T18:21:33+02:00</xmp:MetadataDate>
         <xmp:ModifyDate>2014-06-25T18:21:33+02:00</xmp:ModifyDate>
         <xmp:Thumbnails>
            <rdf:Alt>
               <rdf:li rdf:parseType="Resource">
                  <xmpGImg:width>248</xmpGImg:width>
                  <xmpGImg:height>256</xmpGImg:height>
                  <xmpGImg:format>JPEG</xmpGImg:format>
                  </rdf:li>
            </rdf:Alt>
         </xmp:Thumbnails>
         <xmpTPg:MaxPageSize rdf:parseType="Resource">
            <stDim:w>1000.000000</stDim:w>
            <stDim:h>1000.000000</stDim:h>
            <stDim:unit>Pixels</stDim:unit>
         </xmpTPg:MaxPageSize>
         <xmpTPg:NPages>1</xmpTPg:NPages>
         <xmpTPg:HasVisibleTransparency>False</xmpTPg:HasVisibleTransparency>
         <xmpTPg:HasVisibleOverprint>False</xmpTPg:HasVisibleOverprint>
         <xmpTPg:PlateNames>
            <rdf:Seq>
               <rdf:li>Cyan</rdf:li>
               <rdf:li>Magenta</rdf:li>
               <rdf:li>Yellow</rdf:li>
               <rdf:li>Black</rdf:li>
            </rdf:Seq>
         </xmpTPg:PlateNames>
         <xmpTPg:SwatchGroups>
            <rdf:Seq>
               <rdf:li rdf:parseType="Resource">
                  <xmpG:groupName>Groupe de nuances par d&#233;faut</xmpG:groupName>
                  <xmpG:groupType>0</xmpG:groupType>
               </rdf:li>
            </rdf:Seq>
         </xmpTPg:SwatchGroups>
         <dc:format>image/svg+xml</dc:format>
         <xmpMM:DocumentID>xmp.did:e16f5b97-2080-4144-882a-7ffba4644464</xmpMM:DocumentID>
         <xmpMM:InstanceID>xmp.iid:e16f5b97-2080-4144-882a-7ffba4644464</xmpMM:InstanceID>
         <xmpMM:OriginalDocumentID>xmp.did:2ca5e5bf-976c-44da-9b30-3808fa2bf024</xmpMM:OriginalDocumentID>
         <xmpMM:History>
            <rdf:Seq>
               <rdf:li rdf:parseType="Resource">
                  <stEvt:action>saved</stEvt:action>
                  <stEvt:instanceID>xmp.iid:2ca5e5bf-976c-44da-9b30-3808fa2bf024</stEvt:instanceID>
                  <stEvt:when>2014-05-16T15:18:31+02:00</stEvt:when>
                  <stEvt:softwareAgent>Adobe Illustrator CC (Macintosh)</stEvt:softwareAgent>
                  <stEvt:changed>/</stEvt:changed>
               </rdf:li>
               <rdf:li rdf:parseType="Resource">
                  <stEvt:action>saved</stEvt:action>
                  <stEvt:instanceID>xmp.iid:e16f5b97-2080-4144-882a-7ffba4644464</stEvt:instanceID>
                  <stEvt:when>2014-06-25T18:21:33+02:00</stEvt:when>
                  <stEvt:softwareAgent>Adobe Illustrator CC (Macintosh)</stEvt:softwareAgent>
                  <stEvt:changed>/</stEvt:changed>
               </rdf:li>
            </rdf:Seq>
         </xmpMM:History>
         <xmpMM:DerivedFrom rdf:parseType="Resource">
            <stRef:instanceID>xmp.iid:b82e2080-bdf8-47d3-b7a5-2f93a41bd18e</stRef:instanceID>
            <stRef:documentID>xmp.did:b82e2080-bdf8-47d3-b7a5-2f93a41bd18e</stRef:documentID>
            <stRef:originalDocumentID>xmp.did:2ca5e5bf-976c-44da-9b30-3808fa2bf024</stRef:originalDocumentID>
         </xmpMM:DerivedFrom>
      </rdf:Description>
   </rdf:RDF>
</x:xmpmeta>
                                                                                                    
                                                                                                    
                                                                                                    
                                                                                                    
                                                                                                    
                                                                                                    
                                                                                                    
                                                                                                    
                                                                                                    
                                                                                                    
                                                                                                    
                                                                                                    
                                                                                                    
                                                                                                    
                                                                                                    
                                                                                                    
                                                                                                    
                                                                                                    
                                                                                                    
                                                                                                    
                           
<?xpacket end="w"?>
	</metadata>
<path d="M584,839c-33.2,17.3-46.2,58.2-28.9,91.5c17.3,33.2,58.2,46.2,91.5,28.9c33.2-17.3,46.2-58.2,28.9-91.5  C658.2,834.7,617.2,821.8,584,839z M627.5,922.8c-13,6.8-29.1,1.7-35.9-11.3c-6.8-13-1.7-29.1,11.3-35.9c13-6.8,29.1-1.7,35.9,11.3  C645.7,900,640.6,916.1,627.5,922.8z"/>
<path d="M884.9,770.4l-182.3,94.7L479.9,436.7c2.1-11.2-2-23.6-13.6-30.7c-34.8-7.1-69.8-14.3-104.6-21.4l-0.2-0.9l-2.1,0.4  c-0.3-0.1-0.5-0.1-0.8-0.2l-0.1,0.3l-47.1,9.5c-16.9-38.8-33.8-77.7-50.7-116.5c-40-62.7-120.7-50.5-154.1-1.7  c-0.4-0.1-0.7-0.2-1.1-0.4c-0.4,1.3-0.9,2.7-1.3,4.1c-6.9,11.2-11.3,24.1-12.4,38.4C76.3,366.2,60.6,414.7,45,463.2  c0.1,2.2,0.4,4.3,0.9,6.3c0.1,13.6,9.2,26.9,25.2,29.3c27.2-5.5,54.5-10.9,81.7-16.4c27,62,54,123.9,80.9,185.9l1.1-0.5  c2.5,35,5.1,70,7.6,105c-20.2,47.9-40.5,95.8-60.8,143.6c-3,41.3,48.1,62.9,75.7,32c22.7-53.7,45.5-107.5,68.2-161.2l0.3,0  c0-0.2,0-0.4,0-0.6c0.1-0.3,0.2-0.6,0.4-0.8l-0.4-0.2c-3.7-50.8-7.4-101.6-11.1-152.4c-0.2,0-0.4,0-0.5,0l9.6-4.2  c19.2,43.7,38.3,87.4,57.5,131.1l-0.1,0c23.6,53.9,47.3,107.9,70.9,161.8c28,30.6,78.8,8.3,75.3-33  c-23.3-53.2-46.8-106.6-70.1-159.9l0.1,0c-19.4-44.3-38.8-88.5-58.2-132.8l0.4-0.2c-21.8-50-43.6-100-65.4-150.1l25.2-5.1  c31.9,6.5,63.9,13.1,95.8,19.6c6.2-0.9,11.4-3.5,15.4-7.1l241.7,465l14.2-7.4L710,879.3l182.3-94.7L884.9,770.4z M113,433.6  c2.6-8.2,5.3-16.4,7.9-24.5c3.1,7,6.1,14.1,9.2,21.1C124.4,431.3,118.7,432.4,113,433.6z"/>
<path d="M703.4,838.1c2.6,5,8.8,6.9,13.8,4.3l93.6-48.7L662.5,508.6l-93.6,48.7c-5,2.6-6.9,8.8-4.3,13.8L703.4,838.1z"/>
<path d="M933,718.8L794.1,451.7c-2.6-5-8.8-6.9-13.8-4.3L682,498.4l148.3,285.3l98.3-51.1C933.6,730,935.6,723.8,933,718.8z"/>
<path d="M169.9,107.5c-0.5-0.2-0.8-0.4-0.8-0.4s-0.1-0.7-0.1-1.8c-4.2,5.9-7.6,12.5-10,19.7c-13.5,40,7.9,83.3,47.9,96.8  c39.7,13.4,82.8-7.7,96.6-47.2c-3.5-2-7-4-10.5-6C240.2,139.1,177.7,111,169.9,107.5z"/>
<path d="M171.1,98.9c0.1,1.1,0.1,1.8,0.1,1.8s0.3,0.1,0.8,0.4c7.9,3.5,70.4,31.5,122.9,61.1c3.6,2,7.1,4,10.5,6  c15.1,8.8,28.9,17.5,39.7,25.7c-6.6-28.6-26.8-56.1-26.8-56.1c-2.3-2.9-5.5-5.8-9.3-8.8c90.9-51.6-59.6-86.6-106.5-91.1  c-35.5-3.4-33.4,26-30.1,40.8C170.5,84.4,170.8,94.7,171.1,98.9z"/>
</svg>